<svg xmlns="http://www.w3.org/2000/svg" width="38" height="37" viewBox="0 0 38 37">
  <g id="Group_88" data-name="Group 88" transform="translate(0.228 -0.144)">
    <rect id="Rectangle_85" data-name="Rectangle 85" width="38" height="37" transform="translate(-0.228 0.144)" fill="none"/>
    <g id="location" transform="translate(3.53 2.182)">
      <g id="Group_84" data-name="Group 84" transform="translate(10.03 9.487)">
        <g id="Group_83" data-name="Group 83">
          <path id="Path_25" data-name="Path 25" d="M194.907,142.93a4.343,4.343,0,1,0,4.344,4.344A4.348,4.348,0,0,0,194.907,142.93Z" transform="translate(-190.563 -142.93)" fill="#fefefe"/>
        </g>
      </g>
      <g id="Group_86" data-name="Group 86">
        <g id="Group_85" data-name="Group 85">
          <path id="Path_26" data-name="Path 26" d="M63.988,4.21A14.374,14.374,0,0,0,39.451,14.374c0,7.767,7.344,14.227,11.289,17.7.548.482,1.022.9,1.4,1.251a2.476,2.476,0,0,0,3.371,0c.377-.352.851-.769,1.4-1.251C60.854,28.6,68.2,22.141,68.2,14.374A14.28,14.28,0,0,0,63.988,4.21ZM53.825,20.165a6.334,6.334,0,1,1,6.334-6.334A6.341,6.341,0,0,1,53.825,20.165Z" transform="translate(-39.451)" fill="#fefefe"/>
        </g>
      </g>
    </g>
  </g>
</svg>
