<svg xmlns="http://www.w3.org/2000/svg" width="38" height="38" viewBox="0 0 38 38">
  <g id="Group_87" data-name="Group 87" transform="translate(0.229 -0.398)">
    <rect id="Rectangle_84" data-name="Rectangle 84" width="38" height="38" transform="translate(-0.229 0.398)" fill="none"/>
    <g id="Page-1" transform="translate(0.741 0.884)">
      <g id="_003---Call" data-name="003---Call" transform="translate(0)">
        <path id="Shape" d="M15.994,21.239a14.615,14.615,0,0,1-4.413-8.3,1.241,1.241,0,0,1,.356-1.039l2.8-2.8a1.249,1.249,0,0,0,.176-1.545L10.457.647A1.249,1.249,0,0,0,8.839.192L1.69,3.559A1.242,1.242,0,0,0,1,4.8c.375,3.559,1.926,12.307,10.523,20.9s17.344,10.149,20.9,10.523a1.242,1.242,0,0,0,1.241-.687l3.367-7.149a1.249,1.249,0,0,0-.453-1.615l-6.915-4.452a1.249,1.249,0,0,0-1.545.175l-2.8,2.8a1.241,1.241,0,0,1-1.039.357,14.615,14.615,0,0,1-8.3-4.413Z" transform="translate(-0.997 -0.022)" fill="#fefefe"/>
        <path id="Shape-2" data-name="Shape" d="M39.862,23.111a1.249,1.249,0,0,1-1.249-1.249A9.376,9.376,0,0,0,29.249,12.5a1.249,1.249,0,1,1,0-2.5A11.876,11.876,0,0,1,41.111,21.862,1.249,1.249,0,0,1,39.862,23.111Z" transform="translate(-11.141 -3.757)" fill="#fefefe"/>
        <path id="Shape-3" data-name="Shape" d="M46.106,19.355a1.249,1.249,0,0,1-1.249-1.249A15.626,15.626,0,0,0,29.249,2.5a1.249,1.249,0,1,1,0-2.5A18.126,18.126,0,0,1,47.355,18.106a1.249,1.249,0,0,1-1.249,1.249Z" transform="translate(-11.141)" fill="#fefefe"/>
      </g>
    </g>
  </g>
</svg>
